<svg xmlns="http://www.w3.org/2000/svg" viewBox="0 0 100 100" fill="currentColor"><path d="M19.765 28.006a4.418 4.418 0 01-4.415-4.411 4.418 4.418 0 014.415-4.415 4.418 4.418 0 014.414 4.415 4.418 4.418 0 01-4.414 4.411zm0-7.13a2.72 2.72 0 00-2.717 2.719c0 1.495 1.219 2.715 2.717 2.715s2.717-1.22 2.717-2.715a2.721 2.721 0 00-2.717-2.719zM80.844 27.701a4.418 4.418 0 01-4.412-4.413 4.417 4.417 0 014.412-4.413c.912 0 1.785.276 2.527.802l-.009 1.392a2.691 2.691 0 00-1.16 2.22c0 .89.434 1.72 1.16 2.22l.009 1.393a4.373 4.373 0 01-2.527.799zm0-7.129c-1.497 0-2.715 1.219-2.715 2.716a2.719 2.719 0 003.267 2.659 4.41 4.41 0 01.001-5.318 2.745 2.745 0 00-.553-.057zM80.808 56.978c-.394 0-.779-.047-1.146-.14l-.489-.125-.124-.49c-.448-1.764.18-3.766 1.638-5.223 1.434-1.434 3.493-2.078 5.226-1.641l.489.125.125.489c.448 1.765-.181 3.767-1.64 5.226-1.128 1.131-2.616 1.779-4.079 1.779zm-.197-1.703c1.063.052 2.209-.408 3.076-1.276.872-.871 1.34-2.03 1.276-3.075-1.059-.073-2.209.408-3.077 1.276-.871.87-1.339 2.029-1.275 3.075z"/><path d="M78.814 56.978c-1.463 0-2.95-.647-4.08-1.778-1.458-1.459-2.086-3.461-1.638-5.226l.124-.489.49-.123c1.732-.443 3.791.205 5.226 1.639 1.458 1.457 2.086 3.459 1.638 5.223l-.125.49-.489.125a4.72 4.72 0 01-1.146.139zm-4.155-6.054c-.064 1.045.404 2.204 1.276 3.075.814.813 1.863 1.283 2.88 1.283.065 0 .131-.005.196-.007.065-1.047-.404-2.205-1.276-3.075-.867-.868-2.014-1.349-3.076-1.276zM80.773 65.854a4.775 4.775 0 01-1.57-.26l-.476-.167-.081-.499c-.293-1.797.508-3.735 2.089-5.061 1.557-1.304 3.663-1.764 5.349-1.177l.477.167.081.5c.292 1.795-.508 3.734-2.09 5.063-1.101.924-2.444 1.434-3.779 1.434zm-.488-1.735c1.045.16 2.238-.213 3.174-1 .946-.793 1.515-1.905 1.542-2.954-1.042-.157-2.236.216-3.177 1.003-.943.791-1.511 1.904-1.539 2.951z"/><path d="M78.768 65.677c-1.585 0-3.204-.802-4.331-2.146-1.326-1.583-1.775-3.633-1.174-5.35l.167-.477.499-.082c1.769-.283 3.759.537 5.063 2.092 1.325 1.58 1.775 3.629 1.174 5.346l-.166.478-.5.081a4.655 4.655 0 01-.732.058zm-4.032-6.412c-.156 1.037.21 2.23 1.002 3.175.789.942 1.887 1.514 2.952 1.54.157-1.036-.209-2.231-1.001-3.175-.79-.944-1.887-1.514-2.953-1.54zM77.398 74.216c-1.34-.001-2.576-.44-3.479-1.239l-.378-.335.113-.491c.41-1.773 1.885-3.266 3.85-3.895 1.936-.62 4.058-.247 5.396.936l.379.335-.115.492c-.409 1.772-1.885 3.266-3.851 3.894a6.27 6.27 0 01-1.915.303zm-1.919-2.195c.54.319 1.213.498 1.92.498.467 0 .938-.076 1.398-.223 1.174-.376 2.123-1.19 2.544-2.151-.89-.532-2.15-.646-3.32-.273-1.173.375-2.12 1.19-2.542 2.149z"/><path d="M74.675 73.227l-.49-.113c-1.775-.409-3.268-1.884-3.896-3.849-.629-1.968-.27-4.034.937-5.396l.335-.379.491.113c1.773.409 3.266 1.885 3.895 3.85.63 1.964.271 4.031-.936 5.396l-.336.378zm-2.495-7.799c-.537.901-.65 2.145-.275 3.319.375 1.173 1.19 2.121 2.15 2.542.538-.901.651-2.144.274-3.316-.375-1.176-1.189-2.122-2.149-2.545zM73.262 81.514c-1.534 0-2.954-.572-3.896-1.567l-.347-.367.156-.478c.565-1.734 2.167-3.089 4.18-3.54 1.98-.448 4.063.111 5.291 1.409l.346.366-.155.481c-.566 1.73-2.167 3.087-4.181 3.538-.461.105-.93.158-1.394.158zm-2.26-2.381c.604.439 1.399.684 2.259.684.338 0 .683-.04 1.022-.116 1.204-.27 2.22-.997 2.725-1.918-.84-.608-2.083-.833-3.283-.564-1.202.269-2.217.994-2.723 1.914z"/><path d="M70.097 80.262l-.479-.155c-1.731-.565-3.088-2.165-3.541-4.179-.453-2.015.087-4.041 1.41-5.292l.366-.346.479.156c1.731.564 3.087 2.165 3.539 4.178.454 2.014-.086 4.041-1.409 5.291l-.365.347zM68.3 72.275c-.614.848-.837 2.078-.567 3.281.271 1.2.998 2.217 1.918 2.722.614-.851.836-2.079.566-3.281s-.998-2.22-1.917-2.722zM67.54 87.199c-2.059 0-3.916-.97-4.847-2.532l-.258-.434.258-.434c.93-1.565 2.789-2.539 4.851-2.539 2.068 0 3.926.969 4.856 2.528l.259.434-.259.437c-.929 1.564-2.788 2.537-4.852 2.54h-.008zm-3.071-2.967c.694.784 1.842 1.27 3.071 1.27v.849l.007-.849c1.233-.001 2.383-.488 3.077-1.275-.694-.784-1.843-1.269-3.073-1.269-1.238 0-2.387.487-3.082 1.274z"/><path d="M63.339 85.135l-.434-.258c-1.566-.926-2.541-2.784-2.544-4.848-.002-2.063.968-3.926 2.531-4.857l.434-.26.434.259c1.565.929 2.539 2.787 2.542 4.851.002 2.063-.966 3.925-2.53 4.854l-.433.259zm-.011-8.186c-.786.694-1.271 1.846-1.27 3.078s.49 2.382 1.277 3.074c.785-.693 1.27-1.845 1.268-3.078 0-1.234-.489-2.382-1.275-3.074zM59.756 91.086c-.436 0-.875-.046-1.308-.137-2.018-.422-3.639-1.756-4.229-3.479l-.165-.478.342-.372c1.211-1.316 3.276-1.906 5.271-1.484 2.02.422 3.641 1.754 4.231 3.477l.164.477-.342.372c-.948 1.032-2.392 1.624-3.964 1.624zm-3.709-3.675c.52.913 1.545 1.625 2.75 1.877 1.191.248 2.438.006 3.274-.616-.519-.91-1.546-1.623-2.753-1.875-1.192-.251-2.435-.004-3.271.614z"/><path d="M54.754 88.061l-.371-.341c-1.341-1.231-1.912-3.25-1.489-5.269.423-2.021 1.756-3.642 3.478-4.231l.477-.162.372.341c1.34 1.231 1.91 3.25 1.486 5.269-.422 2.021-1.754 3.643-3.476 4.229l-.477.164zm1.678-8.014c-.911.52-1.623 1.547-1.877 2.752-.252 1.206-.011 2.431.617 3.271.911-.518 1.623-1.543 1.875-2.75.253-1.207.012-2.431-.615-3.273zM18.768 56.978c-1.464 0-2.952-.647-4.08-1.778-1.46-1.459-2.087-3.461-1.639-5.226l.125-.489.489-.125c1.735-.438 3.792.207 5.226 1.641 1.458 1.457 2.087 3.459 1.639 5.223l-.125.49-.49.125a4.712 4.712 0 01-1.145.139zm-4.156-6.054c-.065 1.045.404 2.204 1.276 3.075.813.814 1.863 1.283 2.88 1.283.066 0 .131-.005.196-.007.064-1.047-.404-2.205-1.275-3.075-.868-.868-2.016-1.349-3.077-1.276z"/><path d="M20.761 56.978c-.394 0-.779-.047-1.146-.14l-.489-.125-.125-.49c-.448-1.764.18-3.766 1.639-5.223 1.435-1.434 3.495-2.082 5.225-1.639l.489.123.125.489c.448 1.765-.18 3.767-1.639 5.226-1.129 1.131-2.615 1.779-4.079 1.779zm-.197-1.703c1.065.059 2.209-.408 3.076-1.276.871-.871 1.341-2.03 1.276-3.075-1.061-.073-2.21.408-3.076 1.276-.87.87-1.34 2.029-1.276 3.075zM18.803 65.854c-1.336 0-2.678-.51-3.779-1.435-1.581-1.327-2.382-3.267-2.09-5.062l.082-.5.476-.167c1.688-.587 3.792-.127 5.35 1.177 1.581 1.325 2.381 3.264 2.089 5.061l-.081.499-.477.167a4.779 4.779 0 01-1.57.26zm-4.229-5.689c.027 1.049.596 2.161 1.541 2.953.796.669 1.75 1.038 2.688 1.038.167 0 .33-.013.487-.037-.027-1.047-.596-2.16-1.54-2.951-.94-.787-2.135-1.16-3.176-1.003z"/><path d="M20.808 65.677c-.247 0-.494-.02-.732-.058l-.498-.081-.167-.478c-.602-1.717-.151-3.766 1.175-5.346 1.303-1.555 3.292-2.377 5.062-2.092l.498.082.167.477c.601 1.717.151 3.767-1.175 5.35-1.127 1.344-2.745 2.146-4.33 2.146zm4.031-6.412c-1.066.026-2.163.597-2.953 1.54-.792.943-1.159 2.139-1.002 3.175 1.064-.026 2.164-.598 2.952-1.54.793-.945 1.159-2.138 1.003-3.175zM22.177 74.216a6.259 6.259 0 01-1.917-.304c-1.965-.628-3.44-2.121-3.85-3.894l-.114-.492.378-.335c1.337-1.183 3.457-1.559 5.396-.935 1.964.628 3.44 2.12 3.849 3.894l.113.491-.378.335c-.902.799-2.137 1.24-3.477 1.24zm-3.943-4.07c.422.961 1.369 1.775 2.544 2.151 1.157.369 2.422.256 3.318-.275-.421-.96-1.368-1.774-2.542-2.147-1.171-.377-2.43-.262-3.32.271z"/><path d="M24.9 73.227l-.335-.377c-1.207-1.365-1.565-3.433-.935-5.396.629-1.965 2.121-3.44 3.895-3.85l.492-.113.334.379c1.206 1.361 1.565 3.428.937 5.396-.629 1.965-2.122 3.439-3.896 3.849l-.492.112zm2.496-7.799c-.96.423-1.774 1.369-2.149 2.545-.376 1.173-.264 2.415.273 3.316.961-.421 1.775-1.369 2.151-2.542.375-1.175.261-2.418-.275-3.319zM26.314 81.514c-.465 0-.935-.053-1.396-.157-2.013-.451-3.614-1.808-4.18-3.538l-.156-.481.347-.366c1.227-1.298 3.305-1.857 5.292-1.409 2.012.451 3.613 1.806 4.178 3.54l.157.478-.348.367c-.939.993-2.359 1.566-3.894 1.566zm-3.747-3.732c.505.921 1.521 1.648 2.724 1.918 1.2.271 2.44.046 3.282-.567-.506-.92-1.521-1.645-2.723-1.915-1.203-.269-2.442-.044-3.283.564z"/><path d="M29.479 80.262l-.366-.347c-1.323-1.25-1.862-3.277-1.408-5.292.451-2.012 1.807-3.612 3.539-4.177l.479-.156.367.346c1.322 1.251 1.863 3.277 1.41 5.292-.453 2.014-1.81 3.613-3.541 4.179l-.48.155zm1.797-7.987c-.919.502-1.646 1.519-1.917 2.72-.271 1.204-.048 2.433.566 3.283.919-.505 1.647-1.521 1.918-2.723.27-1.201.047-2.432-.567-3.28zM32.035 87.199h-.009c-2.063-.003-3.923-.976-4.852-2.54l-.258-.437.259-.434c.931-1.56 2.789-2.528 4.849-2.528 2.069 0 3.927.974 4.858 2.539l.257.434-.259.434c-.929 1.562-2.786 2.532-4.845 2.532zm-3.084-2.972c.694.785 1.845 1.274 3.077 1.275l.007.849v-.849c1.229 0 2.377-.485 3.071-1.27-.694-.787-1.843-1.274-3.074-1.274-1.236 0-2.386.484-3.081 1.269z"/><path d="M36.237 85.135l-.433-.259c-1.564-.93-2.533-2.791-2.53-4.855.002-2.063.976-3.921 2.542-4.85l.434-.259.434.26c1.563.932 2.533 2.794 2.53 4.857s-.978 3.922-2.544 4.848l-.433.258zm.01-8.186c-.786.691-1.274 1.84-1.276 3.074-.001 1.233.484 2.385 1.269 3.078.787-.692 1.276-1.842 1.277-3.074.001-1.232-.485-2.383-1.27-3.078zM39.819 91.086c-1.572 0-3.016-.592-3.964-1.624l-.342-.372.163-.477c.59-1.723 2.211-3.055 4.232-3.477 1.99-.422 4.058.168 5.269 1.484l.341.372-.164.478c-.59 1.723-2.211 3.057-4.229 3.479-.43.091-.871.137-1.306.137zm-2.315-2.414c.613.455 1.442.717 2.315.717.318 0 .641-.034.959-.101 1.206-.252 2.23-.964 2.75-1.877-.836-.618-2.082-.865-3.271-.614-1.207.252-2.234.965-2.753 1.875z"/><path d="M44.821 88.061l-.477-.164c-1.723-.587-3.054-2.209-3.476-4.23-.424-2.018.146-4.036 1.487-5.268l.372-.341.478.162c1.721.59 3.054 2.21 3.477 4.231.423 2.019-.148 4.037-1.489 5.269l-.372.341zm-1.677-8.014c-.627.842-.868 2.066-.615 3.271.252 1.208.965 2.234 1.876 2.752.627-.841.869-2.065.616-3.271-.254-1.205-.966-2.233-1.877-2.752zM30.695 47.522H18.816v-4.667h1.697v2.971h10.182zM80.76 47.522H68.88v-1.696h10.183v-2.971h1.697zM68.88 36.018h5.939v1.695H68.88zM24.755 36.018h5.94v1.695h-5.94z"/><path d="M89.72 43.28H73.547V31.825h16.055l-4.188 5.983 4.306 5.472zm-14.476-1.697h10.98L83.3 37.869l3.042-4.347H75.244v8.061zM26.453 43.28H10.28l4.306-5.472-4.188-5.983h16.055V43.28zm-12.678-1.697h10.98v-8.061H13.657l3.042 4.347-2.924 3.714zM49.788 76.798c-10.996 0-19.941-8.944-19.941-19.94V28.854h39.882v28.003c0 10.997-8.946 19.941-19.941 19.941zM31.543 30.552v26.306c0 10.061 8.185 18.242 18.245 18.242 10.059 0 18.243-8.182 18.243-18.242V30.552H31.543z"/><path d="M78.978 47.354l-5.431-4.074v-1.272h1.697v.425l4.752 3.562z"/><g><path d="M20.123 47.389l-.918-1.428 5.55-3.568v-.385h1.698v1.311z"/></g><g><path d="M58.839 17.21H41.585V8.914h4.997v3.3h1.131v-3.3h4.997v3.3h1.132v-3.3h4.997v8.296zm-15.557-1.697h13.86v-4.9h-1.604v3.3h-4.525v-3.3H49.41v3.3h-4.525v-3.3h-1.603v4.9zM44.767 27.158H28.362v-8.297h4.997v3.299h1.131v-3.299h4.997v3.299h1.131v-3.299h4.149v1.698h-2.451v3.299H37.79v-3.299h-1.602v3.299h-4.526v-3.299H30.06v4.902h14.707zM71.213 27.158H54.809v-1.697h14.708v-4.902h-1.603v3.299h-4.526v-3.299h-1.603v3.299H57.26v-3.299h-2.451v-1.698h4.148v3.299h1.131v-3.299h4.997v3.299h1.132v-3.299h4.996z"/><path d="M56.722 27.129H43.278l1.212-10.674 1.686.191-.997 8.785h9.642l-.997-8.785 1.686-.191z"/></g></svg>